PathFileType	4	(X/Y/Z)	traj.trc
DataRate	CameraRate	NumFrames	NumMarkers	Units	OrigDataRate	OrigDataStartFrame	OrigNumFrames
30.00	30.00	100	1	mm	30.00	1	100
Frame#	Time	wrist		
		X1	Y1	Z1

0	0.0	100.0	800.0	200.0
1	0.10101010101010101	100.0	800.0	200.0
2	0.20202020202020202	100.00149969392442	800.0	199.9985003060756
3	0.30303030303030304	100.00887636416479	800.0	199.99112363583524
4	0.40404040404040403	100.02770529933807	800.0	199.97229470066193
5	0.5050505050505051	100.0632057590995	800.0	199.93679424090053
6	0.6060606060606061	100.12024846948927	800.0	199.87975153051073
7	0.7070707070707071	100.20336311827904	800.0	199.79663688172099
8	0.8080808080808081	100.3167458503185	800.0	199.68325414968152
9	0.9090909090909091	100.46426676288193	800.0	199.53573323711808
10	1.0101010101010102	100.64947740101482	800.0	199.3505225989852
11	1.1111111111111112	100.87561825288032	800.0	199.12438174711968
12	1.2121212121212122	101.1456262451059	800.0	198.8543737548941
13	1.3131313131313131	101.46214223812986	800.0	198.53785776187016
14	1.4141414141414141	101.82751852154789	800.0	198.1724814784521
15	1.5151515151515151	102.24382630945969	800.0	197.75617369054032
16	1.6161616161616161	102.71286323581545	800.0	197.28713676418457
17	1.7171717171717171	103.23616084976243	800.0	196.76383915023757
18	1.8181818181818181	103.8149921109916	800.0	196.1850078890084
19	1.9191919191919191	104.45037888508408	800.0	195.54962111491594
20	2.0202020202020203	105.14309943885776	800.0	194.85690056114225
21	2.121212121212121	105.89369593571392	800.0	194.10630406428612
22	2.2222222222222223	106.70248193098367	800.0	193.29751806901635
23	2.323232323232323	107.5695498672746	800.0	192.4304501327254
24	2.4242424242424243	108.4947785698173	800.0	191.50522143018273
25	2.525252525252525	109.47784074181195	800.0	190.52215925818805
26	2.6262626262626263	110.51821045977488	800.0	189.48178954022515
27	2.727272727272727	111.61517066888504	800.0	188.384829331115
28	2.8282828282828283	112.76782067833075	800.0	187.23217932166926
29	2.929292929292929	113.97508365665604	800.0	186.024916343344
30	3.0303030303030303	115.2357141271074	800.0	184.76428587289263
31	3.131313131313131	116.54830546298022	800.0	183.4516945370198
32	3.2323232323232323	117.91129738296539	800.0	182.0887026170346
33	3.3333333333333335	119.32298344649588	800.0	180.67701655350413
34	3.4343434343434343	120.78151854909329	800.0	179.21848145090672
35	3.5353535353535355	122.28492641771435	800.0	177.71507358228567
36	3.6363636363636362	123.8311071060976	800.0	176.1688928939024
37	3.7373737373737375	125.41784449010984	800.0	174.58215550989019
38	3.8383838383838382	127.0428137630928	800.0	172.95718623690726
39	3.9393939393939394	128.70358893120948	800.0	171.29641106879052
40	4.040404040404041	130.3976503087911	800.0	169.6023496912089
41	4.141414141414141	132.12239201368325	800.0	167.87760798631678
42	4.242424242424242	133.87512946259272	800.0	166.1248705374073
43	4.343434343434343	135.6531068664339	800.0	164.3468931335661
44	4.444444444444445	137.45350472567546	800.0	162.54649527432454
45	4.545454545454545	139.2734473256869	800.0	160.72655267431313
46	4.646464646464646	141.11001023208496	800.0	158.88998976791504
47	4.747474747474747	142.96022778608045	800.0	157.03977221391958
48	4.848484848484849	144.8211005998245	800.0	155.17889940017554
49	4.94949494949495	146.6896030517553	800.0	153.31039694824466
50	5.05050505050505	148.56269078194484	800.0	151.4373092180552
51	5.151515151515151	150.43730818744498	800.0	149.56269181255502
52	5.252525252525253	152.3103959176345	800.0	147.6896040823655
53	5.353535353535354	154.1788983695654	800.0	145.82110163043467
54	5.454545454545454	156.03977118330943	800.0	143.9602288166906
55	5.555555555555555	157.88998873730486	800.0	142.1100112626951
56	5.656565656565657	159.72655164370298	800.0	140.27344835629708
57	5.757575757575758	161.54649424371436	800.0	138.4535057562856
58	5.858585858585858	163.34689210295593	800.0	136.65310789704404
59	5.959595959595959	165.12486950679713	800.0	134.87513049320287
60	6.0606060606060606	166.87760695570657	800.0	133.1223930442934
61	6.161616161616162	168.60234866059875	800.0	131.39765133940128
62	6.262626262626262	170.29641003818037	800.0	129.70358996181966
63	6.363636363636363	171.95718520629708	800.0	128.04281479370295
64	6.4646464646464645	173.58215447928	800.0	126.41784552072
65	6.565656565656566	175.16889186329226	800.0	124.83110813670775
66	6.666666666666667	176.71507255167552	800.0	123.28492744832451
67	6.767676767676767	178.2184804202966	800.0	121.78151957970344
68	6.8686868686868685	179.67701552289398	800.0	120.32298447710605
69	6.96969696969697	181.0887015864245	800.0	118.91129841357555
70	7.070707070707071	182.45169350640967	800.0	117.54830649359037
71	7.171717171717171	183.76428484228248	800.0	116.23571515771755
72	7.2727272727272725	185.0249153127338	800.0	114.97508468726619
73	7.373737373737374	186.2321782910591	800.0	113.7678217089409
74	7.474747474747475	187.3848283005048	800.0	112.61517169949519
75	7.575757575757575	188.481788509615	800.0	111.51821149038501
76	7.6767676767676765	189.5221582275779	800.0	110.47784177242211
77	7.777777777777778	190.50522039957258	800.0	109.49477960042745
78	7.878787878787879	191.43044910211526	800.0	108.56955089788474
79	7.979797979797979	192.2975170384062	800.0	107.7024829615938
80	8.080808080808081	193.10630303367597	800.0	106.89369696632406
81	8.181818181818182	193.85689953053208	800.0	106.14310046946792
82	8.282828282828282	194.5496200843058	800.0	105.45037991569423
83	8.383838383838384	195.18500685839825	800.0	104.81499314160175
84	8.484848484848484	195.76383811962742	800.0	104.2361618803726
85	8.585858585858587	196.2871357335744	800.0	103.71286426642563
86	8.686868686868687	196.75617265993014	800.0	103.24382734006987
87	8.787878787878787	197.17248044784193	800.0	102.82751955215808
88	8.88888888888889	197.53785673125998	800.0	102.46214326874004
89	8.98989898989899	197.85437272428393	800.0	102.14562727571608
90	9.09090909090909	198.1243807165095	800.0	101.87561928349051
91	9.191919191919192	198.35052156837503	800.0	101.64947843162501
92	9.292929292929292	198.53573220650787	800.0	101.46426779349214
93	9.393939393939394	198.6832531190713	800.0	101.3167468809287
94	9.494949494949495	198.79663585111078	800.0	101.20336414888925
95	9.595959595959595	198.87975049990052	800.0	101.12024950009949
96	9.696969696969697	198.9367932102903	800.0	101.06320678970971
97	9.797979797979798	198.97229367005176	800.0	101.02770632994826
98	9.8989898989899	198.99112260522506	800.0	101.00887739477497
99	10.0	198.99849927546543	800.0	101.0015007245346
